<svg width="10" height="6" viewBox="0 0 10 6" fill="none" xmlns="http://www.w3.org/2000/svg">
<path d="M9.0058 5.98586C8.87419 5.98662 8.74373 5.96139 8.62189 5.91163C8.50005 5.86186 8.38924 5.78854 8.2958 5.69586L5.0058 2.38586L1.7058 5.56586C1.51844 5.75211 1.26498 5.85665 1.0008 5.85665C0.736612 5.85665 0.483161 5.75211 0.295798 5.56586C0.20207 5.47289 0.127676 5.36229 0.0769072 5.24043C0.0261385 5.11857 0 4.98787 0 4.85586C0 4.72385 0.0261385 4.59314 0.0769072 4.47128C0.127676 4.34942 0.20207 4.23882 0.295798 4.14586L4.2958 0.285857C4.48273 0.10263 4.73405 0 4.9958 0C5.25755 0 5.50887 0.10263 5.6958 0.285857L9.6958 4.28586C9.78953 4.37882 9.86392 4.48942 9.91469 4.61128C9.96546 4.73314 9.9916 4.86385 9.9916 4.99586C9.9916 5.12787 9.96546 5.25857 9.91469 5.38043C9.86392 5.50229 9.78953 5.61289 9.6958 5.70586C9.51042 5.88454 9.26327 5.98483 9.0058 5.98586Z" fill="black"/>
</svg>
